<?xml version="1.0" encoding="utf-8"?>
<!-- Generator: Adobe Illustrator 18.1.1, SVG Export Plug-In . SVG Version: 6.00 Build 0)  -->
<!DOCTYPE svg PUBLIC "-//W3C//DTD SVG 1.1//EN" "http://www.w3.org/Graphics/SVG/1.1/DTD/svg11.dtd">
<svg version="1.1" xmlns="http://www.w3.org/2000/svg" xmlns:xlink="http://www.w3.org/1999/xlink" x="0px" y="0px"
	 viewBox="0 0 100 100" enable-background="new 0 0 100 100" xml:space="preserve">
<g id="Layer_1" display="none">
	<rect display="inline" width="100" height="100"/>
</g>
<g id="Layer_2">
	<rect x="32" y="34" fill="#FFFFFF" width="24" height="28"/>
	<path fill="#FFFFFF" d="M10,34C10,17.4,23.4,4,40,4s30,13.4,30,30"/>
	<rect x="44" y="62" fill="#FFFFFF" width="2" height="25"/>
	<rect x="32" y="62" fill="#FFFFFF" width="10" height="12"/>
	<rect x="24" y="34" fill="#FFFFFF" width="6" height="24"/>
	<rect x="48" y="34" fill="#FFFFFF" width="4" height="32"/>
	<rect x="20" y="34" fill="#FFFFFF" width="12" height="14"/>
	<rect x="54" y="34" fill="#FFFFFF" width="4" height="8"/>
	<rect x="42" y="34" width="15" height="1"/>
	<rect x="42" y="36" width="15" height="1"/>
	<rect x="42" y="38" width="15" height="1"/>
	<rect x="33" y="34" width="1" height="17"/>
	<rect x="33" y="52" width="1" height="17"/>
	<rect x="34" y="41" width="3" height="1"/>
	<rect x="34" y="43" width="3" height="1"/>
	<rect x="34" y="45" width="3" height="1"/>
	<rect x="47" y="32" width="22" height="1"/>
	<rect x="50" y="30" width="18" height="1"/>
	<rect x="45" y="41" width="1" height="18"/>
	<rect x="54" y="42" width="1" height="8"/>
	<rect x="42" y="39" width="1" height="18"/>
	<rect x="21" y="34" width="4" height="2"/>
	<rect x="21" y="37" width="4" height="2"/>
	<rect x="21" y="40" width="4" height="2"/>
	<rect x="32" y="75" fill="#FFFFFF" width="10" height="2"/>
	<rect x="29" y="59" fill="#FFFFFF" width="1" height="5"/>
	<rect x="32" y="78" fill="#FFFFFF" width="8" height="1"/>
	<rect x="32" y="80" fill="#FFFFFF" width="5" height="1"/>
	<rect x="32" y="82" fill="#FFFFFF" width="2" height="1"/>
	<rect x="44" y="89" fill="#FFFFFF" width="2" height="2"/>
	<rect x="44" y="93" fill="#FFFFFF" width="1" height="2"/>
	<rect x="44" y="98" fill="#FFFFFF" width="0" height="0"/>
	<rect x="44" y="97" fill="#FFFFFF" width="1" height="1"/>
	<rect x="22" y="48" fill="#FFFFFF" width="1" height="6"/>
	<rect x="61" y="22" width="1" height="1"/>
	<rect x="48" y="26" width="5" height="1"/>
	<rect x="49" y="14" width="1" height="1"/>
	<rect x="35" y="27" width="1" height="3"/>
	<rect x="30" y="27" width="5" height="1"/>
	<rect x="47" y="19" width="2" height="1"/>
	<rect x="56" y="21" width="1" height="1"/>
	<rect x="52" y="27" width="8" height="1"/>
	<rect x="59" y="25" width="1" height="1"/>
	<rect x="48" y="67" fill="#FFFFFF" width="4" height="1"/>
	<rect x="39" y="80" fill="#FFFFFF" width="1" height="3"/>
	<rect x="40" y="62" width="1" height="10"/>
	<rect x="38" y="62" width="1" height="3"/>
	<rect x="53" y="53" width="1" height="2"/>
	<rect x="49" y="51" width="1" height="1"/>
	<rect x="52" y="42" width="1" height="1"/>
	<rect x="51" y="60" width="4" height="1"/>
	<rect x="12" y="32" width="5" height="1"/>
	<rect x="43" y="11" width="1" height="1"/>
	<rect x="41" y="28" width="9" height="1"/>
	<rect x="43" y="23" width="1" height="1"/>
	<rect x="35" y="67" width="2" height="7"/>
	<rect x="37" y="71" width="2" height="3"/>
	<rect x="35" y="75" width="4" height="1"/>
	<rect x="58" y="66" fill="#FFFFFF" width="1" height="8"/>
	<rect x="58" y="68" fill="#FFFFFF" width="2" height="1"/>
	<rect x="59" y="45" fill="#FFFFFF" width="1" height="1"/>
	<rect x="59" y="39" fill="#FFFFFF" width="1" height="4"/>
	<rect x="59" y="34" fill="#FFFFFF" width="1" height="3"/>
</g>
</svg>
