<?xml version="1.0" encoding="utf-8"?>
<!-- Generator: Adobe Illustrator 18.1.1, SVG Export Plug-In . SVG Version: 6.00 Build 0)  -->
<!DOCTYPE svg PUBLIC "-//W3C//DTD SVG 1.1//EN" "http://www.w3.org/Graphics/SVG/1.1/DTD/svg11.dtd">
<svg version="1.1" id="Layer_1" xmlns="http://www.w3.org/2000/svg" xmlns:xlink="http://www.w3.org/1999/xlink" x="0px" y="0px"
	 viewBox="0 0 1040 1040" enable-background="new 0 0 1040 1040" xml:space="preserve">
<path fill="none" stroke="#FFFFFF" stroke-width="2" stroke-miterlimit="10" d="M203.4,168.4l-16.7-18.5
	c-6.5,5.8-12.8,11.8-18.9,17.9l17.6,17.6C191.3,179.6,197.3,173.9,203.4,168.4z"/>
<path fill="none" stroke="#FFFFFF" stroke-width="2" stroke-miterlimit="10" d="M222.2,152.3l-15.7-19.3L222.2,152.3
	c6.4-5.2,13-10.2,19.6-15.1L227.2,117l14.6,20.1c6.7-4.9,13.5-9.5,20.4-14l-13.5-20.8l13.5,20.8c6.9-4.5,14-8.8,21.1-13L271,88.7
	l12.4,21.5c7.1-4.1,14.4-8.1,21.8-11.8l-11.3-22.1l11.3,22.1c7.3-3.7,14.8-7.3,22.4-10.7L317.4,65l10.1,22.7
	c7.5-3.4,15.2-6.5,22.9-9.5L341.5,55l8.9,23.1c7.7-3,15.5-5.7,23.4-8.3l-7.7-23.6l7.7,23.6c7.8-2.5,15.8-4.9,23.8-7l-6.4-23.9
	l6.4,23.9c8-2.1,16-4,24.1-5.8l-5.2-24.3l5.2,24.3c8-1.7,16.2-3.2,24.4-4.5l-3.9-24.5l3.9,24.5c8.1-1.3,16.3-2.3,24.6-3.2l-2.6-24.7
	l2.6,24.7c8.2-0.8,16.4-1.5,24.7-1.9l-1.3-24.9l1.3,24.9c8.2-0.4,16.5-0.6,24.8-0.6V21.9c-128.2,0-245,48.4-333.3,127.9l16.7,18.5
	C209.5,162.8,215.8,157.5,222.2,152.3z"/>
<path fill="none" stroke="#FFFFFF" stroke-width="2" stroke-miterlimit="10" d="M185.4,185.4l-17.6-17.6
	c-6.1,6.1-12.1,12.5-17.9,18.9l18.5,16.7C173.9,197.3,179.6,191.3,185.4,185.4z"/>
<path fill="none" stroke="#FFFFFF" stroke-width="2" stroke-miterlimit="10" d="M544.8,47.5l1.3-24.9L544.8,47.5
	c8.3,0.4,16.5,1.1,24.7,1.9l2.6-24.7l-2.6,24.7c8.3,0.9,16.4,1.9,24.6,3.2l3.9-24.5L594,52.6c8.2,1.3,16.3,2.8,24.4,4.5l5.2-24.3
	l-5.2,24.3c8.1,1.7,16.1,3.6,24.1,5.8l6.4-23.9l-6.4,23.9c8,2.1,15.9,4.5,23.8,7l7.7-23.6l-7.7,23.6c7.9,2.6,15.7,5.3,23.4,8.3
	l8.9-23.1l-8.9,23.1c7.7,3,15.4,6.1,22.9,9.5L722.6,65l-10.1,22.7c7.6,3.4,15,6.9,22.4,10.7l11.3-22.1l-11.3,22.1
	c7.4,3.8,14.6,7.7,21.8,11.8L769,88.7l-12.4,21.5c7.2,4.1,14.2,8.5,21.1,13l13.5-20.8l-13.5,20.8c6.9,4.5,13.7,9.2,20.4,14
	l14.6-20.1l-14.6,20.1c6.7,4.9,13.2,9.9,19.6,15.1l15.7-19.3l-15.7,19.3c6.4,5.2,12.7,10.6,18.8,16.1l16.7-18.5
	C765,70.3,648.2,21.9,520,21.9v24.9C528.3,46.8,536.6,47,544.8,47.5z"/>
<path fill="none" stroke="#FFFFFF" stroke-width="2" stroke-miterlimit="10" d="M47.5,495.2l-24.9-1.3L47.5,495.2
	c0.4-8.3,1.1-16.5,1.9-24.7l-24.7-2.6l24.7,2.6c0.9-8.3,1.9-16.4,3.2-24.6l-24.5-3.9l24.5,3.9c1.3-8.2,2.8-16.3,4.5-24.4l-24.3-5.2
	l24.3,5.2c1.7-8.1,3.6-16.1,5.8-24.1l-23.9-6.4l23.9,6.4c2.1-8,4.5-15.9,7-23.8l-23.6-7.7l23.6,7.7c2.6-7.9,5.3-15.7,8.3-23.4
	L55,341.5l23.1,8.9c3-7.7,6.1-15.4,9.5-22.9L65,317.4l22.7,10.1c3.4-7.6,6.9-15,10.7-22.4l-22.1-11.3l22.1,11.3
	c3.8-7.4,7.7-14.6,11.8-21.8L88.7,271l21.5,12.4c4.1-7.2,8.5-14.2,13-21.1l-20.8-13.5l20.8,13.5c4.5-6.9,9.2-13.7,14-20.4L117,227.2
	l20.1,14.6c4.9-6.7,9.9-13.2,15.1-19.6l-19.3-15.7l19.3,15.7c5.2-6.4,10.6-12.7,16.1-18.8l-18.5-16.7C70.3,275,21.9,391.8,21.9,520
	h24.9C46.8,511.7,47,503.4,47.5,495.2z"/>
<path fill="none" stroke="#FFFFFF" stroke-width="2" stroke-miterlimit="10" d="M854.6,185.4l17.6-17.6
	c-6.1-6.1-12.5-12.1-18.9-17.9l-16.7,18.5C842.7,173.9,848.7,179.6,854.6,185.4z"/>
<path fill="none" stroke="#FFFFFF" stroke-width="2" stroke-miterlimit="10" d="M887.7,222.2l19.3-15.7L887.7,222.2
	c5.2,6.4,10.2,13,15.1,19.6l20.1-14.6l-20.1,14.6c4.9,6.7,9.5,13.5,14,20.4l20.8-13.5l-20.8,13.5c4.5,6.9,8.8,14,13,21.1l21.5-12.4
	l-21.5,12.4c4.1,7.1,8.1,14.4,11.8,21.8l22.1-11.3l-22.1,11.3c3.7,7.3,7.3,14.8,10.7,22.4l22.7-10.1l-22.7,10.1
	c3.4,7.5,6.5,15.2,9.5,22.9l23.1-8.9l-23.1,8.9c3,7.7,5.7,15.5,8.3,23.4l23.6-7.7l-23.6,7.7c2.5,7.8,4.9,15.8,7,23.8l23.9-6.4
	l-23.9,6.4c2.1,8,4,16,5.8,24.1l24.3-5.2l-24.3,5.2c1.7,8,3.2,16.2,4.5,24.4l24.5-3.9l-24.5,3.9c1.3,8.1,2.3,16.3,3.2,24.6l24.7-2.6
	l-24.7,2.6c0.8,8.2,1.5,16.4,1.9,24.7l24.9-1.3l-24.9,1.3c0.4,8.2,0.6,16.5,0.6,24.8h24.9c0-128.2-48.4-245-127.9-333.3l-18.5,16.7
	C877.2,209.5,882.5,215.8,887.7,222.2z"/>
<path fill="none" stroke="#FFFFFF" stroke-width="2" stroke-miterlimit="10" d="M871.6,203.4l18.5-16.7
	c-5.8-6.5-11.8-12.8-17.9-18.9l-17.6,17.6C860.4,191.3,866.1,197.3,871.6,203.4z"/>
<path fill="none" stroke="#FFFFFF" stroke-width="2" stroke-miterlimit="10" d="M854.6,854.6l17.6,17.6c6.1-6.1,12.1-12.5,17.9-18.9
	l-18.5-16.7C866.1,842.7,860.4,848.7,854.6,854.6z"/>
<path fill="none" stroke="#FFFFFF" stroke-width="2" stroke-miterlimit="10" d="M836.6,871.6l16.7,18.5c6.5-5.8,12.8-11.8,18.9-17.9
	l-17.6-17.6C848.7,860.4,842.7,866.1,836.6,871.6z"/>
<path fill="none" stroke="#FFFFFF" stroke-width="2" stroke-miterlimit="10" d="M817.8,887.7l15.7,19.3L817.8,887.7
	c-6.4,5.2-13,10.2-19.6,15.1l14.6,20.1l-14.6-20.1c-6.7,4.9-13.5,9.5-20.4,14l13.5,20.8l-13.5-20.8c-6.9,4.5-14,8.8-21.1,13
	l12.4,21.5l-12.4-21.5c-7.1,4.1-14.4,8.1-21.8,11.8l11.3,22.1l-11.3-22.1c-7.3,3.7-14.8,7.3-22.4,10.7l10.1,22.7l-10.1-22.7
	c-7.5,3.4-15.2,6.5-22.9,9.5l8.9,23.1l-8.9-23.1c-7.7,3-15.5,5.7-23.4,8.3l7.7,23.6l-7.7-23.6c-7.8,2.5-15.8,4.9-23.8,7l6.4,23.9
	l-6.4-23.9c-8,2.1-16,4-24.1,5.8l5.2,24.3l-5.2-24.3c-8,1.7-16.2,3.2-24.4,4.5l3.9,24.5l-3.9-24.5c-8.1,1.3-16.3,2.3-24.6,3.2
	l2.6,24.7l-2.6-24.7c-8.2,0.8-16.4,1.5-24.7,1.9l1.3,24.9l-1.3-24.9c-8.2,0.4-16.5,0.6-24.8,0.6v24.9c128.2,0,245-48.4,333.3-127.9
	l-16.7-18.5C830.5,877.2,824.2,882.5,817.8,887.7z"/>
<path fill="none" stroke="#FFFFFF" stroke-width="2" stroke-miterlimit="10" d="M152.3,817.8l-19.3,15.7L152.3,817.8
	c-5.2-6.4-10.2-13-15.1-19.6L117,812.8l20.1-14.6c-4.9-6.7-9.5-13.5-14-20.4l-20.8,13.5l20.8-13.5c-4.5-6.9-8.8-14-13-21.1L88.7,769
	l21.5-12.4c-4.1-7.1-8.1-14.4-11.8-21.8l-22.1,11.3l22.1-11.3c-3.7-7.3-7.3-14.8-10.7-22.4L65,722.6l22.7-10.1
	c-3.4-7.5-6.5-15.2-9.5-22.9L55,698.5l23.1-8.9c-3-7.7-5.7-15.5-8.3-23.4l-23.6,7.7l23.6-7.7c-2.5-7.8-4.9-15.8-7-23.8l-23.9,6.4
	l23.9-6.4c-2.1-8-4-16-5.8-24.1l-24.3,5.2l24.3-5.2c-1.7-8-3.2-16.2-4.5-24.4l-24.5,3.9l24.5-3.9c-1.3-8.1-2.3-16.3-3.2-24.6
	l-24.7,2.6l24.7-2.6c-0.8-8.2-1.5-16.4-1.9-24.7l-24.9,1.3l24.9-1.3c-0.4-8.2-0.6-16.5-0.6-24.8H21.9c0,128.2,48.4,245,127.9,333.3
	l18.5-16.7C162.8,830.5,157.5,824.2,152.3,817.8z"/>
<path fill="none" stroke="#FFFFFF" stroke-width="2" stroke-miterlimit="10" d="M993.2,520c0,8.3-0.2,16.6-0.6,24.8l24.9,1.3
	l-24.9-1.3c-0.4,8.3-1.1,16.5-1.9,24.7l24.7,2.6l-24.7-2.6c-0.9,8.3-1.9,16.4-3.2,24.6l24.5,3.9l-24.5-3.9
	c-1.3,8.2-2.8,16.3-4.5,24.4l24.3,5.2l-24.3-5.2c-1.7,8.1-3.6,16.1-5.8,24.1l23.9,6.4l-23.9-6.4c-2.1,8-4.5,15.9-7,23.8l23.6,7.7
	l-23.6-7.7c-2.6,7.9-5.3,15.7-8.3,23.4l23.1,8.9l-23.1-8.9c-3,7.7-6.1,15.4-9.5,22.9l22.7,10.1l-22.7-10.1
	c-3.4,7.6-6.9,15-10.7,22.4l22.1,11.3l-22.1-11.3c-3.8,7.4-7.7,14.6-11.8,21.8l21.5,12.4l-21.5-12.4c-4.1,7.2-8.5,14.2-13,21.1
	l20.8,13.5l-20.8-13.5c-4.5,6.9-9.2,13.7-14,20.4l20.1,14.6l-20.1-14.6c-4.9,6.7-9.9,13.2-15.1,19.6l19.3,15.7l-19.3-15.7
	c-5.2,6.4-10.6,12.7-16.1,18.8l18.5,16.7c79.5-88.3,127.9-205.1,127.9-333.3H993.2z"/>
<path fill="none" stroke="#FFFFFF" stroke-width="2" stroke-miterlimit="10" d="M168.4,836.6l-18.5,16.7
	c5.8,6.5,11.8,12.8,17.9,18.9l17.6-17.6C179.6,848.7,173.9,842.7,168.4,836.6z"/>
<path fill="none" stroke="#FFFFFF" stroke-width="2" stroke-miterlimit="10" d="M495.2,992.5l-1.3,24.9L495.2,992.5
	c-8.3-0.4-16.5-1.1-24.7-1.9l-2.6,24.7l2.6-24.7c-8.3-0.9-16.4-1.9-24.6-3.2l-3.9,24.5l3.9-24.5c-8.2-1.3-16.3-2.8-24.4-4.5
	l-5.2,24.3l5.2-24.3c-8.1-1.7-16.1-3.6-24.1-5.8l-6.4,23.9l6.4-23.9c-8-2.1-15.9-4.5-23.8-7l-7.7,23.6l7.7-23.6
	c-7.9-2.6-15.7-5.3-23.4-8.3l-8.9,23.1l8.9-23.1c-7.7-3-15.4-6.1-22.9-9.5L317.4,975l10.1-22.7c-7.6-3.4-15-6.9-22.4-10.7
	l-11.3,22.1l11.3-22.1c-7.4-3.8-14.6-7.7-21.8-11.8L271,951.3l12.4-21.5c-7.2-4.1-14.2-8.5-21.1-13l-13.5,20.8l13.5-20.8
	c-6.9-4.5-13.7-9.2-20.4-14L227.2,923l14.6-20.1c-6.7-4.9-13.2-9.9-19.6-15.1l-15.7,19.3l15.7-19.3c-6.4-5.2-12.7-10.6-18.8-16.1
	l-16.7,18.5c88.3,79.5,205.1,127.9,333.3,127.9v-24.9C511.7,993.2,503.4,993,495.2,992.5z"/>
<path fill="none" stroke="#FFFFFF" stroke-width="2" stroke-miterlimit="10" d="M185.4,854.6l-17.6,17.6
	c6.1,6.1,12.5,12.1,18.9,17.9l16.7-18.5C197.3,866.1,191.3,860.4,185.4,854.6z"/>
<circle fill="none" stroke="#FFFFFF" stroke-width="2" stroke-miterlimit="10" cx="520" cy="520" r="518"/>
</svg>
