<?xml version="1.0" encoding="utf-8"?>
<!-- Generator: Adobe Illustrator 18.1.1, SVG Export Plug-In . SVG Version: 6.00 Build 0)  -->
<!DOCTYPE svg PUBLIC "-//W3C//DTD SVG 1.1//EN" "http://www.w3.org/Graphics/SVG/1.1/DTD/svg11.dtd">
<svg version="1.1" id="Layer_1" xmlns="http://www.w3.org/2000/svg" xmlns:xlink="http://www.w3.org/1999/xlink" x="0px" y="0px"
	 viewBox="0 0 2604 2604" enable-background="new 0 0 2604 2604" xml:space="preserve">
<line fill="none" stroke="#FFFFFF" stroke-miterlimit="10" x1="1301" y1="222" x2="1301" y2="222"/>
<line fill="none" stroke="#FFFFFF" stroke-miterlimit="10" x1="1296.5" y1="222" x2="1296.5" y2="377"/>
<line fill="none" stroke="#FFFFFF" stroke-miterlimit="10" x1="1296.5" y1="532" x2="1296.5" y2="377"/>
<line fill="none" stroke="#FFFFFF" stroke-miterlimit="10" x1="1296.5" y1="2" x2="1296.5" y2="222"/>
<line fill="none" stroke="#FFFFFF" stroke-miterlimit="10" x1="1301" y1="2" x2="1301" y2="2"/>
<line fill="none" stroke="#FFFFFF" stroke-miterlimit="10" x1="1204.2" y1="684.6" x2="1220.6" y2="788.3"/>
<line fill="none" stroke="#FFFFFF" stroke-miterlimit="10" x1="1204.2" y1="684.6" x2="1181.5" y2="541.4"/>
<line fill="none" stroke="#FFFFFF" stroke-miterlimit="10" x1="1098.6" y1="18" x2="1133" y2="235.2"/>
<line fill="none" stroke="#FFFFFF" stroke-miterlimit="10" x1="1181.5" y1="541.4" x2="1157.3" y2="388.3"/>
<line fill="none" stroke="#FFFFFF" stroke-miterlimit="10" x1="1133" y1="235.2" x2="1157.3" y2="388.3"/>
<line fill="none" stroke="#FFFFFF" stroke-miterlimit="10" x1="1108.8" y1="707.4" x2="1064" y2="569.5"/>
<line fill="none" stroke="#FFFFFF" stroke-miterlimit="10" x1="1108.8" y1="707.4" x2="1141.3" y2="807.3"/>
<line fill="none" stroke="#FFFFFF" stroke-miterlimit="10" x1="1016.1" y1="422" x2="1064" y2="569.5"/>
<line fill="none" stroke="#FFFFFF" stroke-miterlimit="10" x1="968.2" y1="274.6" x2="1016.1" y2="422"/>
<line fill="none" stroke="#FFFFFF" stroke-miterlimit="10" x1="900.3" y1="65.6" x2="968.2" y2="274.6"/>
<line fill="none" stroke="#FFFFFF" stroke-miterlimit="10" x1="811.6" y1="339.5" x2="882" y2="477.6"/>
<line fill="none" stroke="#FFFFFF" stroke-miterlimit="10" x1="882" y1="477.6" x2="952.4" y2="615.8"/>
<line fill="none" stroke="#FFFFFF" stroke-miterlimit="10" x1="952.4" y1="615.8" x2="1018.2" y2="745"/>
<line fill="none" stroke="#FFFFFF" stroke-miterlimit="10" x1="1018.2" y1="745" x2="1065.9" y2="838.6"/>
<line fill="none" stroke="#FFFFFF" stroke-miterlimit="10" x1="711.8" y1="143.7" x2="811.6" y2="339.5"/>
<line fill="none" stroke="#FFFFFF" stroke-miterlimit="10" x1="849.4" y1="679" x2="934.6" y2="796.3"/>
<line fill="none" stroke="#FFFFFF" stroke-miterlimit="10" x1="996.3" y1="881.3" x2="934.6" y2="796.3"/>
<line fill="none" stroke="#FFFFFF" stroke-miterlimit="10" x1="758.3" y1="553.6" x2="849.4" y2="679"/>
<line fill="none" stroke="#FFFFFF" stroke-miterlimit="10" x1="667.2" y1="428.2" x2="758.3" y2="553.6"/>
<line fill="none" stroke="#FFFFFF" stroke-miterlimit="10" x1="537.9" y1="250.3" x2="667.2" y2="428.2"/>
<line fill="none" stroke="#FFFFFF" stroke-miterlimit="10" x1="647.9" y1="647.9" x2="757.5" y2="757.5"/>
<line fill="none" stroke="#FFFFFF" stroke-miterlimit="10" x1="538.3" y1="538.3" x2="647.9" y2="647.9"/>
<line fill="none" stroke="#FFFFFF" stroke-miterlimit="10" x1="382.8" y1="382.8" x2="538.3" y2="538.3"/>
<line fill="none" stroke="#FFFFFF" stroke-miterlimit="10" x1="860.1" y1="860.1" x2="757.5" y2="757.5"/>
<line fill="none" stroke="#FFFFFF" stroke-miterlimit="10" x1="860.1" y1="860.1" x2="934.3" y2="934.3"/>
<line fill="none" stroke="#FFFFFF" stroke-miterlimit="10" x1="679" y1="849.4" x2="796.3" y2="934.6"/>
<line fill="none" stroke="#FFFFFF" stroke-miterlimit="10" x1="796.3" y1="934.6" x2="881.3" y2="996.3"/>
<line fill="none" stroke="#FFFFFF" stroke-miterlimit="10" x1="553.6" y1="758.3" x2="679" y2="849.4"/>
<line fill="none" stroke="#FFFFFF" stroke-miterlimit="10" x1="553.6" y1="758.3" x2="428.2" y2="667.2"/>
<line fill="none" stroke="#FFFFFF" stroke-miterlimit="10" x1="428.2" y1="667.2" x2="250.3" y2="537.9"/>
<line fill="none" stroke="#FFFFFF" stroke-miterlimit="10" x1="745" y1="1018.2" x2="838.6" y2="1065.9"/>
<line fill="none" stroke="#FFFFFF" stroke-miterlimit="10" x1="745" y1="1018.2" x2="615.8" y2="952.4"/>
<line fill="none" stroke="#FFFFFF" stroke-miterlimit="10" x1="569.5" y1="1064" x2="707.4" y2="1108.8"/>
<line fill="none" stroke="#FFFFFF" stroke-miterlimit="10" x1="807.3" y1="1141.3" x2="707.4" y2="1108.8"/>
<line fill="none" stroke="#FFFFFF" stroke-miterlimit="10" x1="422" y1="1016.1" x2="569.5" y2="1064"/>
<line fill="none" stroke="#FFFFFF" stroke-miterlimit="10" x1="422" y1="1016.1" x2="274.6" y2="968.2"/>
<line fill="none" stroke="#FFFFFF" stroke-miterlimit="10" x1="274.6" y1="968.2" x2="65.6" y2="900.3"/>
<line fill="none" stroke="#FFFFFF" stroke-miterlimit="10" x1="684.6" y1="1204.2" x2="788.3" y2="1220.6"/>
<line fill="none" stroke="#FFFFFF" stroke-miterlimit="10" x1="541.4" y1="1181.5" x2="684.6" y2="1204.2"/>
<line fill="none" stroke="#FFFFFF" stroke-miterlimit="10" x1="388.3" y1="1157.3" x2="235.2" y2="1133"/>
<line fill="none" stroke="#FFFFFF" stroke-miterlimit="10" x1="388.3" y1="1157.3" x2="541.4" y2="1181.5"/>
<line fill="none" stroke="#FFFFFF" stroke-miterlimit="10" x1="2" y1="1307.5" x2="222" y2="1307.5"/>
<line fill="none" stroke="#FFFFFF" stroke-miterlimit="10" x1="235.2" y1="1471" x2="18" y2="1505.4"/>
<line fill="none" stroke="#FFFFFF" stroke-miterlimit="10" x1="388.3" y1="1446.7" x2="235.2" y2="1471"/>
<line fill="none" stroke="#FFFFFF" stroke-miterlimit="10" x1="388.3" y1="1446.7" x2="541.4" y2="1422.5"/>
<line fill="none" stroke="#FFFFFF" stroke-miterlimit="10" x1="541.4" y1="1422.5" x2="684.6" y2="1399.8"/>
<line fill="none" stroke="#FFFFFF" stroke-miterlimit="10" x1="684.6" y1="1399.8" x2="788.3" y2="1383.4"/>
<line fill="none" stroke="#FFFFFF" stroke-miterlimit="10" x1="274.6" y1="1635.8" x2="65.6" y2="1703.7"/>
<line fill="none" stroke="#FFFFFF" stroke-miterlimit="10" x1="274.6" y1="1635.8" x2="422" y2="1587.9"/>
<line fill="none" stroke="#FFFFFF" stroke-miterlimit="10" x1="422" y1="1587.9" x2="569.5" y2="1540"/>
<line fill="none" stroke="#FFFFFF" stroke-miterlimit="10" x1="707.4" y1="1495.2" x2="807.3" y2="1462.7"/>
<line fill="none" stroke="#FFFFFF" stroke-miterlimit="10" x1="569.5" y1="1540" x2="707.4" y2="1495.2"/>
<line fill="none" stroke="#FFFFFF" stroke-miterlimit="10" x1="745" y1="1585.8" x2="838.6" y2="1538.1"/>
<line fill="none" stroke="#FFFFFF" stroke-miterlimit="10" x1="615.8" y1="1651.6" x2="745" y2="1585.8"/>
<line fill="none" stroke="#FFFFFF" stroke-miterlimit="10" x1="339.5" y1="1792.4" x2="477.6" y2="1722"/>
<line fill="none" stroke="#FFFFFF" stroke-miterlimit="10" x1="477.6" y1="1722" x2="615.8" y2="1651.6"/>
<line fill="none" stroke="#FFFFFF" stroke-miterlimit="10" x1="339.5" y1="1792.4" x2="143.7" y2="1892.2"/>
<line fill="none" stroke="#FFFFFF" stroke-miterlimit="10" x1="679" y1="1754.6" x2="796.3" y2="1669.4"/>
<line fill="none" stroke="#FFFFFF" stroke-miterlimit="10" x1="796.3" y1="1669.4" x2="881.3" y2="1607.7"/>
<line fill="none" stroke="#FFFFFF" stroke-miterlimit="10" x1="428.2" y1="1936.8" x2="553.6" y2="1845.7"/>
<line fill="none" stroke="#FFFFFF" stroke-miterlimit="10" x1="553.6" y1="1845.7" x2="679" y2="1754.6"/>
<line fill="none" stroke="#FFFFFF" stroke-miterlimit="10" x1="428.2" y1="1936.8" x2="250.3" y2="2066.1"/>
<line fill="none" stroke="#FFFFFF" stroke-miterlimit="10" x1="538.3" y1="2065.7" x2="647.9" y2="1956.1"/>
<line fill="none" stroke="#FFFFFF" stroke-miterlimit="10" x1="647.9" y1="1956.1" x2="757.5" y2="1846.5"/>
<line fill="none" stroke="#FFFFFF" stroke-miterlimit="10" x1="538.3" y1="2065.7" x2="382.8" y2="2221.2"/>
<line fill="none" stroke="#FFFFFF" stroke-miterlimit="10" x1="757.5" y1="1846.5" x2="860.1" y2="1743.9"/>
<line fill="none" stroke="#FFFFFF" stroke-miterlimit="10" x1="934.3" y1="1669.7" x2="860.1" y2="1743.9"/>
<line fill="none" stroke="#FFFFFF" stroke-miterlimit="10" x1="667.2" y1="2175.8" x2="537.9" y2="2353.7"/>
<line fill="none" stroke="#FFFFFF" stroke-miterlimit="10" x1="667.2" y1="2175.8" x2="758.3" y2="2050.4"/>
<line fill="none" stroke="#FFFFFF" stroke-miterlimit="10" x1="849.4" y1="1925" x2="758.3" y2="2050.4"/>
<line fill="none" stroke="#FFFFFF" stroke-miterlimit="10" x1="934.6" y1="1807.7" x2="996.3" y2="1722.7"/>
<line fill="none" stroke="#FFFFFF" stroke-miterlimit="10" x1="934.6" y1="1807.7" x2="849.4" y2="1925"/>
<line fill="none" stroke="#FFFFFF" stroke-miterlimit="10" x1="952.4" y1="1988.2" x2="882" y2="2126.4"/>
<line fill="none" stroke="#FFFFFF" stroke-miterlimit="10" x1="811.6" y1="2264.5" x2="882" y2="2126.4"/>
<line fill="none" stroke="#FFFFFF" stroke-miterlimit="10" x1="1065.9" y1="1765.4" x2="1018.2" y2="1859"/>
<line fill="none" stroke="#FFFFFF" stroke-miterlimit="10" x1="952.4" y1="1988.2" x2="1018.2" y2="1859"/>
<line fill="none" stroke="#FFFFFF" stroke-miterlimit="10" x1="711.8" y1="2460.3" x2="811.6" y2="2264.5"/>
<line fill="none" stroke="#FFFFFF" stroke-miterlimit="10" x1="1108.8" y1="1896.6" x2="1141.3" y2="1796.7"/>
<line fill="none" stroke="#FFFFFF" stroke-miterlimit="10" x1="1064" y1="2034.5" x2="1108.8" y2="1896.6"/>
<line fill="none" stroke="#FFFFFF" stroke-miterlimit="10" x1="1064" y1="2034.5" x2="1016.1" y2="2182"/>
<line fill="none" stroke="#FFFFFF" stroke-miterlimit="10" x1="968.2" y1="2329.4" x2="1016.1" y2="2182"/>
<line fill="none" stroke="#FFFFFF" stroke-miterlimit="10" x1="1181.5" y1="2062.6" x2="1157.3" y2="2215.7"/>
<line fill="none" stroke="#FFFFFF" stroke-miterlimit="10" x1="1133" y1="2368.8" x2="1157.3" y2="2215.7"/>
<line fill="none" stroke="#FFFFFF" stroke-miterlimit="10" x1="1181.5" y1="2062.6" x2="1204.2" y2="1919.4"/>
<line fill="none" stroke="#FFFFFF" stroke-miterlimit="10" x1="1220.6" y1="1815.7" x2="1204.2" y2="1919.4"/>
<line fill="none" stroke="#FFFFFF" stroke-miterlimit="10" x1="1133" y1="2368.8" x2="1098.6" y2="2586"/>
<line fill="none" stroke="#FFFFFF" stroke-miterlimit="10" x1="1296.5" y1="2227" x2="1296.5" y2="2382"/>
<line fill="none" stroke="#FFFFFF" stroke-miterlimit="10" x1="1301" y1="2382" x2="1301" y2="2382"/>
<line fill="none" stroke="#FFFFFF" stroke-miterlimit="10" x1="1296.5" y1="2227" x2="1296.5" y2="2072"/>
<line fill="none" stroke="#FFFFFF" stroke-miterlimit="10" x1="1296.5" y1="2382" x2="1296.5" y2="2602"/>
<line fill="none" stroke="#FFFFFF" stroke-miterlimit="10" x1="1301" y1="2602" x2="1301" y2="2602"/>
<line fill="none" stroke="#FFFFFF" stroke-miterlimit="10" x1="1301" y1="2072" x2="1301" y2="2072"/>
<line fill="none" stroke="#FFFFFF" stroke-miterlimit="10" x1="1296.5" y1="2072" x2="1296.5" y2="1927"/>
<line fill="none" stroke="#FFFFFF" stroke-miterlimit="10" x1="1296.5" y1="1822" x2="1296.5" y2="1927"/>
<line fill="none" stroke="#FFFFFF" stroke-miterlimit="10" x1="1383.4" y1="1815.7" x2="1399.8" y2="1919.4"/>
<line fill="none" stroke="#FFFFFF" stroke-miterlimit="10" x1="1422.5" y1="2062.6" x2="1399.8" y2="1919.4"/>
<line fill="none" stroke="#FFFFFF" stroke-miterlimit="10" x1="1505.4" y1="2586" x2="1471" y2="2368.8"/>
<line fill="none" stroke="#FFFFFF" stroke-miterlimit="10" x1="1446.7" y1="2215.7" x2="1422.5" y2="2062.6"/>
<line fill="none" stroke="#FFFFFF" stroke-miterlimit="10" x1="1446.7" y1="2215.7" x2="1471" y2="2368.8"/>
<line fill="none" stroke="#FFFFFF" stroke-miterlimit="10" x1="1462.7" y1="1796.7" x2="1495.2" y2="1896.6"/>
<line fill="none" stroke="#FFFFFF" stroke-miterlimit="10" x1="1495.2" y1="1896.6" x2="1540" y2="2034.5"/>
<line fill="none" stroke="#FFFFFF" stroke-miterlimit="10" x1="1587.9" y1="2182" x2="1635.8" y2="2329.4"/>
<line fill="none" stroke="#FFFFFF" stroke-miterlimit="10" x1="1587.9" y1="2182" x2="1540" y2="2034.5"/>
<line fill="none" stroke="#FFFFFF" stroke-miterlimit="10" x1="1703.7" y1="2538.4" x2="1635.8" y2="2329.4"/>
<line fill="none" stroke="#FFFFFF" stroke-miterlimit="10" x1="1651.6" y1="1988.2" x2="1722" y2="2126.4"/>
<line fill="none" stroke="#FFFFFF" stroke-miterlimit="10" x1="1792.4" y1="2264.5" x2="1722" y2="2126.4"/>
<line fill="none" stroke="#FFFFFF" stroke-miterlimit="10" x1="1792.4" y1="2264.5" x2="1892.2" y2="2460.3"/>
<line fill="none" stroke="#FFFFFF" stroke-miterlimit="10" x1="1585.8" y1="1859" x2="1651.6" y2="1988.2"/>
<line fill="none" stroke="#FFFFFF" stroke-miterlimit="10" x1="1538.1" y1="1765.4" x2="1585.8" y2="1859"/>
<line fill="none" stroke="#FFFFFF" stroke-miterlimit="10" x1="1936.8" y1="2175.8" x2="1845.7" y2="2050.4"/>
<line fill="none" stroke="#FFFFFF" stroke-miterlimit="10" x1="1754.6" y1="1925" x2="1845.7" y2="2050.4"/>
<line fill="none" stroke="#FFFFFF" stroke-miterlimit="10" x1="2066.1" y1="2353.7" x2="1936.8" y2="2175.8"/>
<line fill="none" stroke="#FFFFFF" stroke-miterlimit="10" x1="2221.2" y1="2221.2" x2="2065.7" y2="2065.7"/>
<line fill="none" stroke="#FFFFFF" stroke-miterlimit="10" x1="2065.7" y1="2065.7" x2="1956.1" y2="1956.1"/>
<line fill="none" stroke="#FFFFFF" stroke-miterlimit="10" x1="1846.5" y1="1846.5" x2="1956.1" y2="1956.1"/>
<line fill="none" stroke="#FFFFFF" stroke-miterlimit="10" x1="1743.9" y1="1743.9" x2="1846.5" y2="1846.5"/>
<line fill="none" stroke="#FFFFFF" stroke-miterlimit="10" x1="1743.9" y1="1743.9" x2="1669.7" y2="1669.7"/>
<line fill="none" stroke="#FFFFFF" stroke-miterlimit="10" x1="1925" y1="1754.6" x2="2050.4" y2="1845.7"/>
<line fill="none" stroke="#FFFFFF" stroke-miterlimit="10" x1="2175.8" y1="1936.8" x2="2050.4" y2="1845.7"/>
<line fill="none" stroke="#FFFFFF" stroke-miterlimit="10" x1="2353.7" y1="2066.1" x2="2175.8" y2="1936.8"/>
<line fill="none" stroke="#FFFFFF" stroke-miterlimit="10" x1="1859" y1="1585.8" x2="1988.2" y2="1651.6"/>
<line fill="none" stroke="#FFFFFF" stroke-miterlimit="10" x1="1859" y1="1585.8" x2="1765.4" y2="1538.1"/>
<line fill="none" stroke="#FFFFFF" stroke-miterlimit="10" x1="2264.5" y1="1792.4" x2="2126.4" y2="1722"/>
<line fill="none" stroke="#FFFFFF" stroke-miterlimit="10" x1="1988.2" y1="1651.6" x2="2126.4" y2="1722"/>
<line fill="none" stroke="#FFFFFF" stroke-miterlimit="10" x1="2460.3" y1="1892.2" x2="2264.5" y2="1792.4"/>
<line fill="none" stroke="#FFFFFF" stroke-miterlimit="10" x1="2538.4" y1="1703.7" x2="2329.4" y2="1635.8"/>
<line fill="none" stroke="#FFFFFF" stroke-miterlimit="10" x1="2586" y1="1505.4" x2="2368.8" y2="1471"/>
<line fill="none" stroke="#FFFFFF" stroke-miterlimit="10" x1="1919.4" y1="1399.8" x2="1815.7" y2="1383.4"/>
<line fill="none" stroke="#FFFFFF" stroke-miterlimit="10" x1="1919.4" y1="1399.8" x2="2062.6" y2="1422.5"/>
<line fill="none" stroke="#FFFFFF" stroke-miterlimit="10" x1="2062.6" y1="1422.5" x2="2215.7" y2="1446.7"/>
<line fill="none" stroke="#FFFFFF" stroke-miterlimit="10" x1="2368.8" y1="1471" x2="2215.7" y2="1446.7"/>
<line fill="none" stroke="#FFFFFF" stroke-miterlimit="10" x1="2382" y1="1303" x2="2382" y2="1303"/>
<line fill="none" stroke="#FFFFFF" stroke-miterlimit="10" x1="2227" y1="1307.5" x2="2072" y2="1307.5"/>
<line fill="none" stroke="#FFFFFF" stroke-miterlimit="10" x1="2382" y1="1307.5" x2="2227" y2="1307.5"/>
<line fill="none" stroke="#FFFFFF" stroke-miterlimit="10" x1="1927" y1="1307.5" x2="2072" y2="1307.5"/>
<line fill="none" stroke="#FFFFFF" stroke-miterlimit="10" x1="2072" y1="1303" x2="2072" y2="1303"/>
<line fill="none" stroke="#FFFFFF" stroke-miterlimit="10" x1="1927" y1="1307.5" x2="1822" y2="1307.5"/>
<line fill="none" stroke="#FFFFFF" stroke-miterlimit="10" x1="2602" y1="1307.5" x2="2382" y2="1307.5"/>
<line fill="none" stroke="#FFFFFF" stroke-miterlimit="10" x1="2602" y1="1303" x2="2602" y2="1303"/>
<line fill="none" stroke="#FFFFFF" stroke-miterlimit="10" x1="1919.4" y1="1204.2" x2="1815.7" y2="1220.6"/>
<line fill="none" stroke="#FFFFFF" stroke-miterlimit="10" x1="1919.4" y1="1204.2" x2="2062.6" y2="1181.5"/>
<line fill="none" stroke="#FFFFFF" stroke-miterlimit="10" x1="2368.8" y1="1133" x2="2215.7" y2="1157.3"/>
<line fill="none" stroke="#FFFFFF" stroke-miterlimit="10" x1="2062.6" y1="1181.5" x2="2215.7" y2="1157.3"/>
<line fill="none" stroke="#FFFFFF" stroke-miterlimit="10" x1="2586" y1="1098.6" x2="2368.8" y2="1133"/>
<line fill="none" stroke="#FFFFFF" stroke-miterlimit="10" x1="2034.5" y1="1064" x2="2182" y2="1016.1"/>
<line fill="none" stroke="#FFFFFF" stroke-miterlimit="10" x1="2329.4" y1="968.2" x2="2182" y2="1016.1"/>
<line fill="none" stroke="#FFFFFF" stroke-miterlimit="10" x1="1896.6" y1="1108.8" x2="2034.5" y2="1064"/>
<line fill="none" stroke="#FFFFFF" stroke-miterlimit="10" x1="1896.6" y1="1108.8" x2="1796.7" y2="1141.3"/>
<line fill="none" stroke="#FFFFFF" stroke-miterlimit="10" x1="2538.4" y1="900.3" x2="2329.4" y2="968.2"/>
<line fill="none" stroke="#FFFFFF" stroke-miterlimit="10" x1="2264.5" y1="811.6" x2="2126.4" y2="882"/>
<line fill="none" stroke="#FFFFFF" stroke-miterlimit="10" x1="2460.3" y1="711.8" x2="2264.5" y2="811.6"/>
<line fill="none" stroke="#FFFFFF" stroke-miterlimit="10" x1="1925" y1="849.4" x2="2050.4" y2="758.3"/>
<line fill="none" stroke="#FFFFFF" stroke-miterlimit="10" x1="2175.8" y1="667.2" x2="2050.4" y2="758.3"/>
<line fill="none" stroke="#FFFFFF" stroke-miterlimit="10" x1="2353.7" y1="537.9" x2="2175.8" y2="667.2"/>
<line fill="none" stroke="#FFFFFF" stroke-miterlimit="10" x1="1925" y1="849.4" x2="1807.7" y2="934.6"/>
<line fill="none" stroke="#FFFFFF" stroke-miterlimit="10" x1="1722.7" y1="996.3" x2="1807.7" y2="934.6"/>
<line fill="none" stroke="#FFFFFF" stroke-miterlimit="10" x1="2065.7" y1="538.3" x2="1956.1" y2="647.9"/>
<line fill="none" stroke="#FFFFFF" stroke-miterlimit="10" x1="1846.5" y1="757.5" x2="1956.1" y2="647.9"/>
<line fill="none" stroke="#FFFFFF" stroke-miterlimit="10" x1="1846.5" y1="757.5" x2="1743.9" y2="860.1"/>
<line fill="none" stroke="#FFFFFF" stroke-miterlimit="10" x1="1743.9" y1="860.1" x2="1669.7" y2="934.3"/>
<line fill="none" stroke="#FFFFFF" stroke-miterlimit="10" x1="2221.2" y1="382.8" x2="2065.7" y2="538.3"/>
<path fill="none" stroke="#FFFFFF" stroke-miterlimit="10" d="M1845.7,553.6"/>
<path fill="none" stroke="#FFFFFF" stroke-miterlimit="10" d="M1754.6,679"/>
<line fill="none" stroke="#FFFFFF" stroke-miterlimit="10" x1="2066.1" y1="250.3" x2="1936.8" y2="428.2"/>
<line fill="none" stroke="#FFFFFF" stroke-miterlimit="10" x1="1538.1" y1="838.6" x2="1585.8" y2="745"/>
<line fill="none" stroke="#FFFFFF" stroke-miterlimit="10" x1="1651.6" y1="615.8" x2="1585.8" y2="745"/>
<line fill="none" stroke="#FFFFFF" stroke-miterlimit="10" x1="1792.4" y1="339.5" x2="1892.2" y2="143.7"/>
<line fill="none" stroke="#FFFFFF" stroke-miterlimit="10" x1="1792.4" y1="339.5" x2="1722" y2="477.6"/>
<line fill="none" stroke="#FFFFFF" stroke-miterlimit="10" x1="1651.6" y1="615.8" x2="1722" y2="477.6"/>
<line fill="none" stroke="#FFFFFF" stroke-miterlimit="10" x1="1635.8" y1="274.6" x2="1703.7" y2="65.6"/>
<line fill="none" stroke="#FFFFFF" stroke-miterlimit="10" x1="1495.2" y1="707.4" x2="1540" y2="569.5"/>
<line fill="none" stroke="#FFFFFF" stroke-miterlimit="10" x1="1462.7" y1="807.3" x2="1495.2" y2="707.4"/>
<line fill="none" stroke="#FFFFFF" stroke-miterlimit="10" x1="1587.9" y1="422" x2="1540" y2="569.5"/>
<line fill="none" stroke="#FFFFFF" stroke-miterlimit="10" x1="1587.9" y1="422" x2="1635.8" y2="274.6"/>
<line fill="none" stroke="#FFFFFF" stroke-miterlimit="10" x1="1399.8" y1="684.6" x2="1422.5" y2="541.4"/>
<line fill="none" stroke="#FFFFFF" stroke-miterlimit="10" x1="1399.8" y1="684.6" x2="1383.4" y2="788.3"/>
<path fill="none" stroke="#FFFFFF" stroke-miterlimit="10" d="M2602,1302c0,0.3,0,0.7,0,1"/>
<path fill="none" stroke="#FFFFFF" stroke-miterlimit="10" d="M2221.2,382.8C2456.5,618,2602,943,2602,1302"/>
<path fill="none" stroke="#FFFFFF" stroke-miterlimit="10" d="M2221.2,2221.2C1986,2456.5,1661,2602,1302,2602"/>
<path fill="none" stroke="#FFFFFF" stroke-miterlimit="10" d="M1302,2602c-0.3,0-0.7,0-1,0"/>
<path fill="none" stroke="#FFFFFF" stroke-miterlimit="10" d="M382.8,2221.2c235,235,559.7,380.5,918.2,380.8"/>
<path fill="none" stroke="#FFFFFF" stroke-miterlimit="10" d="M382.8,382.8C147.5,618,2,943,2,1302"/>
<path fill="none" stroke="#FFFFFF" stroke-miterlimit="10" d="M382.8,382.8C617.8,147.7,942.4,2.3,1301,2"/>
<path fill="none" stroke="#FFFFFF" stroke-miterlimit="10" d="M1301,2c0.3,0,0.7,0,1,0"/>
<path fill="none" stroke="#FFFFFF" stroke-miterlimit="10" d="M541.4,1181.5c6.3-40.3,15.8-79.6,28.1-117.5"/>
<path fill="none" stroke="#FFFFFF" stroke-miterlimit="10" d="M569.5,1064c12.5-38.6,28.1-75.9,46.3-111.6"/>
<path fill="none" stroke="#FFFFFF" stroke-miterlimit="10" d="M1540,569.5c38.6,12.5,75.9,28.1,111.6,46.3"/>
<path fill="none" stroke="#FFFFFF" stroke-miterlimit="10" d="M1302,532c41,0,81.2,3.2,120.5,9.4"/>
<path fill="none" stroke="#FFFFFF" stroke-miterlimit="10" d="M1422.5,541.4c40.3,6.3,79.6,15.8,117.5,28.1"/>
<path fill="none" stroke="#FFFFFF" stroke-miterlimit="10" d="M1925,849.4c-23.8-32.6-50-63.4-78.5-91.8"/>
<path fill="none" stroke="#FFFFFF" stroke-miterlimit="10" d="M2062.6,1422.5c6.1-38.9,9.3-78.8,9.4-119.5"/>
<path fill="none" stroke="#FFFFFF" stroke-miterlimit="10" d="M2072,1302c0,0.3,0,0.7,0,1"/>
<path fill="none" stroke="#FFFFFF" stroke-miterlimit="10" d="M2034.5,1064c-12.5-38.6-28.1-75.9-46.3-111.6l138.1-70.4"/>
<path fill="none" stroke="#FFFFFF" stroke-miterlimit="10" d="M2062.6,1181.5c-6.3-40.3-15.8-79.6-28.1-117.5"/>
<path fill="none" stroke="#FFFFFF" stroke-miterlimit="10" d="M952.4,1988.2c35.7,18.2,73,33.7,111.6,46.3"/>
<path fill="none" stroke="#FFFFFF" stroke-miterlimit="10" d="M1754.6,1925c32.6-23.8,63.4-50,91.8-78.5"/>
<path fill="none" stroke="#FFFFFF" stroke-miterlimit="10" d="M1064,569.5c-38.6,12.5-75.9,28.1-111.6,46.3"/>
<path fill="none" stroke="#FFFFFF" stroke-miterlimit="10" d="M1302,532c-41,0-81.2,3.2-120.5,9.4"/>
<path fill="none" stroke="#FFFFFF" stroke-miterlimit="10" d="M849.4,679c32.5-23.7,66.9-44.8,103-63.2"/>
<path fill="none" stroke="#FFFFFF" stroke-miterlimit="10" d="M1181.5,541.4c-40.3,6.3-79.6,15.8-117.5,28.1"/>
<path fill="none" stroke="#FFFFFF" stroke-miterlimit="10" d="M1181.5,2062.6c38.9,6.1,78.8,9.3,119.5,9.4"/>
<path fill="none" stroke="#FFFFFF" stroke-miterlimit="10" d="M1301,2072c0.3,0,0.7,0,1,0"/>
<path fill="none" stroke="#FFFFFF" stroke-miterlimit="10" d="M1846.5,1846.5c28.5-28.5,54.7-59.2,78.5-91.8"/>
<path fill="none" stroke="#FFFFFF" stroke-miterlimit="10" d="M569.5,1540c-12.3-38-21.8-77.2-28.1-117.5"/>
<path fill="none" stroke="#FFFFFF" stroke-miterlimit="10" d="M615.8,1651.6c-18.2-35.7-33.7-73-46.3-111.6"/>
<path fill="none" stroke="#FFFFFF" stroke-miterlimit="10" d="M1925,1754.6c23.7-32.5,44.8-66.9,63.2-103"/>
<path fill="none" stroke="#FFFFFF" stroke-miterlimit="10" d="M679,849.4c-23.7,32.5-44.8,66.9-63.2,103"/>
<path fill="none" stroke="#FFFFFF" stroke-miterlimit="10" d="M1754.6,1925c-32.5,23.7-66.9,44.8-103,63.2"/>
<path fill="none" stroke="#FFFFFF" stroke-miterlimit="10" d="M679,849.4c23.8-32.6,50-63.4,78.5-91.8"/>
<path fill="none" stroke="#FFFFFF" stroke-miterlimit="10" d="M1422.5,2062.6c-39.3,6.2-79.5,9.4-120.5,9.4"/>
<path fill="none" stroke="#FFFFFF" stroke-miterlimit="10" d="M1722.7,1607.7c-16,22-33.8,42.8-53,62"/>
<path fill="none" stroke="#FFFFFF" stroke-miterlimit="10" d="M1538.1,1765.4c-24.1,12.3-49.3,22.8-75.4,31.3"/>
<path fill="none" stroke="#FFFFFF" stroke-miterlimit="10" d="M807.3,1462.7c8.5,26.1,19,51.3,31.3,75.4"/>
<path fill="none" stroke="#FFFFFF" stroke-miterlimit="10" d="M788.3,1220.6c-4.2,26.5-6.3,53.7-6.3,81.4"/>
<path fill="none" stroke="#FFFFFF" stroke-miterlimit="10" d="M1607.7,1722.7c22-16,42.8-33.8,62-53"/>
<path fill="none" stroke="#FFFFFF" stroke-miterlimit="10" d="M1815.7,1220.6c4.2,26.5,6.3,53.7,6.3,81.4"/>
<path fill="none" stroke="#FFFFFF" stroke-miterlimit="10" d="M1822,1302c0,27.7-2.2,54.8-6.3,81.4"/>
<path fill="none" stroke="#FFFFFF" stroke-miterlimit="10" d="M1383.4,1815.7c-26.5,4.2-53.7,6.3-81.4,6.3"/>
<path fill="none" stroke="#FFFFFF" stroke-miterlimit="10" d="M881.3,1607.7c-16-21.9-30.3-45.2-42.7-69.5"/>
<path fill="none" stroke="#FFFFFF" stroke-miterlimit="10" d="M996.3,1722.7c-22-16-42.8-33.8-62-53"/>
<path fill="none" stroke="#FFFFFF" stroke-miterlimit="10" d="M1538.1,1765.4c24.4-12.4,47.6-26.7,69.5-42.7"/>
<path fill="none" stroke="#FFFFFF" stroke-miterlimit="10" d="M1383.4,1815.7c27.2-4.3,53.7-10.7,79.4-19"/>
<path fill="none" stroke="#FFFFFF" stroke-miterlimit="10" d="M1796.7,1141.3c8.3,25.6,14.7,52.2,19,79.4"/>
<path fill="none" stroke="#FFFFFF" stroke-miterlimit="10" d="M1538.1,838.6c24.4,12.4,47.6,26.7,69.5,42.7"/>
<path fill="none" stroke="#FFFFFF" stroke-miterlimit="10" d="M1765.4,1538.1c-12.4,24.4-26.7,47.6-42.7,69.5"/>
<path fill="none" stroke="#FFFFFF" stroke-miterlimit="10" d="M1607.7,881.3c22,16,42.8,33.8,62,53"/>
<path fill="none" stroke="#FFFFFF" stroke-miterlimit="10" d="M1722.7,996.3c-16-22-33.8-42.8-53-62"/>
<path fill="none" stroke="#FFFFFF" stroke-miterlimit="10" d="M1065.9,1765.4c24.1,12.3,49.3,22.8,75.4,31.3"/>
<path fill="none" stroke="#FFFFFF" stroke-miterlimit="10" d="M934.3,1669.7c-19.2-19.2-37-40-53-62"/>
<path fill="none" stroke="#FFFFFF" stroke-miterlimit="10" d="M1220.6,1815.7c-27.2-4.3-53.7-10.7-79.4-19"/>
<path fill="none" stroke="#FFFFFF" stroke-miterlimit="10" d="M1302,1822c-27.7,0-54.8-2.2-81.4-6.3"/>
<path fill="none" stroke="#FFFFFF" stroke-miterlimit="10" d="M807.3,1141.3c8.5-26.1,19-51.3,31.3-75.4"/>
<path fill="none" stroke="#FFFFFF" stroke-miterlimit="10" d="M807.3,1141.3c-8.3,25.6-14.7,52.2-19,79.4"/>
<path fill="none" stroke="#FFFFFF" stroke-miterlimit="10" d="M788.3,1383.4c-4.2-26.5-6.3-53.7-6.3-81.4"/>
<path fill="none" stroke="#FFFFFF" stroke-miterlimit="10" d="M1462.7,807.3c26.1,8.5,51.3,19,75.4,31.3"/>
<path fill="none" stroke="#FFFFFF" stroke-miterlimit="10" d="M1302,782c27.7,0,54.8,2.2,81.4,6.3"/>
<path fill="none" stroke="#FFFFFF" stroke-miterlimit="10" d="M1462.7,807.3c-25.6-8.3-52.2-14.7-79.4-19"/>
<path fill="none" stroke="#FFFFFF" stroke-miterlimit="10" d="M996.3,1722.7c21.9,16,45.2,30.3,69.5,42.7"/>
<path fill="none" stroke="#FFFFFF" stroke-miterlimit="10" d="M1302,782c-27.7,0-54.8,2.2-81.4,6.3"/>
<path fill="none" stroke="#FFFFFF" stroke-miterlimit="10" d="M1220.6,788.3c-27.2,4.3-53.7,10.7-79.4,19"/>
<path fill="none" stroke="#FFFFFF" stroke-miterlimit="10" d="M1141.3,807.3c-26.1,8.5-51.3,19-75.4,31.3"/>
<path fill="none" stroke="#FFFFFF" stroke-miterlimit="10" d="M1796.7,1462.7c8.3-25.6,14.7-52.2,19-79.4"/>
<path fill="none" stroke="#FFFFFF" stroke-miterlimit="10" d="M1765.4,1065.9c12.3,24.1,22.8,49.3,31.3,75.4"/>
<path fill="none" stroke="#FFFFFF" stroke-miterlimit="10" d="M1796.7,1462.7c-8.5,26.1-19,51.3-31.3,75.4"/>
<path fill="none" stroke="#FFFFFF" stroke-miterlimit="10" d="M996.3,881.3c21.9-16,45.2-30.3,69.5-42.7"/>
<path fill="none" stroke="#FFFFFF" stroke-miterlimit="10" d="M1765.4,1065.9c-12.4-24.4-26.7-47.6-42.7-69.5"/>
<path fill="none" stroke="#FFFFFF" stroke-miterlimit="10" d="M934.3,934.3c-19.2,19.2-37,40-53,62"/>
<path fill="none" stroke="#FFFFFF" stroke-miterlimit="10" d="M807.3,1462.7c-8.3-25.6-14.7-52.2-19-79.4"/>
<path fill="none" stroke="#FFFFFF" stroke-miterlimit="10" d="M838.6,1065.9c12.4-24.4,26.7-47.6,42.7-69.5"/>
<path fill="none" stroke="#FFFFFF" stroke-miterlimit="10" d="M934.3,934.3c19.2-19.2,40-37,62-53"/>
<path fill="none" stroke="#FFFFFF" stroke-miterlimit="10" d="M968.2,2329.4c53.3,17.3,108.3,30.5,164.9,39.4"/>
<path fill="none" stroke="#FFFFFF" stroke-miterlimit="10" d="M1635.8,274.6c54.2,17.6,106.5,39.4,156.6,64.9"/>
<path fill="none" stroke="#FFFFFF" stroke-miterlimit="10" d="M2065.7,538.3c40,40,76.8,83,110.1,128.8"/>
<path fill="none" stroke="#FFFFFF" stroke-miterlimit="10" d="M2329.4,968.2c17.3,53.3,30.5,108.3,39.4,164.9"/>
<path fill="none" stroke="#FFFFFF" stroke-miterlimit="10" d="M1936.8,428.2c45.8,33.3,88.9,70.2,128.8,110.1"/>
<path fill="none" stroke="#FFFFFF" stroke-miterlimit="10" d="M2264.5,1792.4c-25.8,50.6-55.5,98.9-88.7,144.4"/>
<path fill="none" stroke="#FFFFFF" stroke-miterlimit="10" d="M538.3,538.3c-40,40-76.8,83-110.1,128.8"/>
<path fill="none" stroke="#FFFFFF" stroke-miterlimit="10" d="M2368.8,1133c8.7,55.1,13.2,111.5,13.2,169"/>
<path fill="none" stroke="#FFFFFF" stroke-miterlimit="10" d="M222,1302c0-57.5,4.5-113.9,13.2-169"/>
<path fill="none" stroke="#FFFFFF" stroke-miterlimit="10" d="M1936.8,428.2c-45.6-33.2-93.9-62.9-144.4-88.7"/>
<path fill="none" stroke="#FFFFFF" stroke-miterlimit="10" d="M2329.4,1635.8c-17.6,54.2-39.4,106.5-64.9,156.6"/>
<path fill="none" stroke="#FFFFFF" stroke-miterlimit="10" d="M968.2,274.6C914,292.2,861.7,314,811.6,339.5"/>
<path fill="none" stroke="#FFFFFF" stroke-miterlimit="10" d="M274.6,968.2c-17.3,53.3-30.5,108.3-39.4,164.9"/>
<path fill="none" stroke="#FFFFFF" stroke-miterlimit="10" d="M538.3,2065.7c40,40,83,76.8,128.8,110.1"/>
<path fill="none" stroke="#FFFFFF" stroke-miterlimit="10" d="M235.2,1471c8.9,56.5,22.1,111.6,39.4,164.9"/>
<path fill="none" stroke="#FFFFFF" stroke-miterlimit="10" d="M235.2,1471c-8.7-55.1-13.2-111.5-13.2-169"/>
<path fill="none" stroke="#FFFFFF" stroke-miterlimit="10" d="M339.5,1792.4c25.8,50.6,55.5,98.9,88.7,144.4"/>
<path fill="none" stroke="#FFFFFF" stroke-miterlimit="10" d="M2175.8,667.2c33.2,45.6,62.9,93.9,88.7,144.4"/>
<path fill="none" stroke="#FFFFFF" stroke-miterlimit="10" d="M2175.8,1936.8c-33.3,45.8-70.2,88.9-110.1,128.8"/>
<path fill="none" stroke="#FFFFFF" stroke-miterlimit="10" d="M2264.5,811.6c25.6,50.1,47.3,102.4,64.9,156.6"/>
<path fill="none" stroke="#FFFFFF" stroke-miterlimit="10" d="M274.6,1635.8c17.6,54.2,39.4,106.5,64.9,156.6"/>
<path fill="none" stroke="#FFFFFF" stroke-miterlimit="10" d="M1635.8,2329.4c54.2-17.6,106.5-39.4,156.6-64.9"/>
<path fill="none" stroke="#FFFFFF" stroke-miterlimit="10" d="M811.6,2264.5c50.1,25.6,102.4,47.3,156.6,64.9"/>
<path fill="none" stroke="#FFFFFF" stroke-miterlimit="10" d="M2368.8,1471c-8.9,56.5-22.1,111.6-39.4,164.9"/>
<path fill="none" stroke="#FFFFFF" stroke-miterlimit="10" d="M2382,1302c0,0.3,0,0.7,0,1"/>
<path fill="none" stroke="#FFFFFF" stroke-miterlimit="10" d="M1936.8,2175.8c-45.6,33.2-93.9,62.9-144.4,88.7"/>
<path fill="none" stroke="#FFFFFF" stroke-miterlimit="10" d="M1302,2382c-0.3,0-0.7,0-1,0"/>
<path fill="none" stroke="#FFFFFF" stroke-miterlimit="10" d="M1301,2382c-57.1-0.1-113.2-4.6-168-13.2"/>
<path fill="none" stroke="#FFFFFF" stroke-miterlimit="10" d="M2065.7,2065.7c-40,40-83,76.8-128.8,110.1"/>
<path fill="none" stroke="#FFFFFF" stroke-miterlimit="10" d="M1471,2368.8c-55.1,8.7-111.5,13.2-169,13.2"/>
<path fill="none" stroke="#FFFFFF" stroke-miterlimit="10" d="M1919.4,1399.8c5-31.5,7.6-63.9,7.6-96.8"/>
<path fill="none" stroke="#FFFFFF" stroke-miterlimit="10" d="M707.4,1495.2c10.2,31.4,22.8,61.6,37.6,90.6"/>
<path fill="none" stroke="#FFFFFF" stroke-miterlimit="10" d="M707.4,1108.8c-10,30.8-17.7,62.7-22.8,95.4"/>
<path fill="none" stroke="#FFFFFF" stroke-miterlimit="10" d="M934.6,1807.7c26.4,19.2,54.3,36.4,83.6,51.3"/>
<path fill="none" stroke="#FFFFFF" stroke-miterlimit="10" d="M1018.2,1859c29,14.8,59.2,27.4,90.6,37.6"/>
<path fill="none" stroke="#FFFFFF" stroke-miterlimit="10" d="M1204.2,1919.4c31.5,5,63.9,7.6,96.8,7.6"/>
<path fill="none" stroke="#FFFFFF" stroke-miterlimit="10" d="M860.1,860.1c23.1-23.1,48.1-44.4,74.6-63.7"/>
<path fill="none" stroke="#FFFFFF" stroke-miterlimit="10" d="M1204.2,684.6c-32.7,5.1-64.6,12.8-95.4,22.8"/>
<path fill="none" stroke="#FFFFFF" stroke-miterlimit="10" d="M796.3,934.6c19.3-26.5,40.6-51.4,63.7-74.6"/>
<path fill="none" stroke="#FFFFFF" stroke-miterlimit="10" d="M1495.2,707.4c-30.8-10-62.7-17.7-95.4-22.8"/>
<path fill="none" stroke="#FFFFFF" stroke-miterlimit="10" d="M1807.7,934.6c-19.3-26.5-40.6-51.4-63.7-74.6"/>
<path fill="none" stroke="#FFFFFF" stroke-miterlimit="10" d="M1585.8,745c58.7,30,112,68.9,158.1,115.1"/>
<path fill="none" stroke="#FFFFFF" stroke-miterlimit="10" d="M1301,377c-48.9,0.1-96.9,3.9-143.7,11.3"/>
<path fill="none" stroke="#FFFFFF" stroke-miterlimit="10" d="M1446.7,2215.7c48.4-7.6,95.6-19,141.2-33.8"/>
<path fill="none" stroke="#FFFFFF" stroke-miterlimit="10" d="M882,2126.4c42.9,21.9,87.7,40.5,134.1,55.6"/>
<path fill="none" stroke="#FFFFFF" stroke-miterlimit="10" d="M647.9,1956.1c-34.2-34.2-65.8-71.1-94.3-110.3"/>
<path fill="none" stroke="#FFFFFF" stroke-miterlimit="10" d="M1587.9,422c46.4,15.1,91.2,33.7,134.1,55.6"/>
<path fill="none" stroke="#FFFFFF" stroke-miterlimit="10" d="M882,477.6c-43.3,22.1-84.7,47.5-123.7,76"/>
<path fill="none" stroke="#FFFFFF" stroke-miterlimit="10" d="M1301,2227c-48.9-0.1-96.9-3.9-143.7-11.3"/>
<path fill="none" stroke="#FFFFFF" stroke-miterlimit="10" d="M1587.9,422c-90-29.2-186.1-45-285.9-45c-0.3,0-0.7,0-1,0"/>
<path fill="none" stroke="#FFFFFF" stroke-miterlimit="10" d="M553.6,758.3c28.5-39.2,60.1-76.1,94.3-110.3"/>
</svg>
